#!OML:ASF F:\VICON\USERDATA\INSTALL\rory3\rory3.ASF
:FULLY-SPECIFIED
:DEGREES
1073
root -1.9067 18.9739 -1.64479 3.36204 -44.8718 17.3905
lowerback 17.0085 -3.75162 1.13946
upperback 5.31552 -4.77438 1.26087
thorax -3.80332 -2.40147 1.63718
lowerneck -14.71 -3.17441 -5.93869
upperneck 17.856 -4.55431 7.3462
head 8.27277 -1.85385 2.91754
rclavicle -1.15295e-013 -2.54444e-014
rhumerus 33.7047 38.1173 -41.9885
rradius 56.0996
rwrist -4.74698
rhand -38.8475 -16.9877
rfingers 7.12502
rthumb -11.8566 -46.632
lclavicle -1.15295e-013 -2.54444e-014
lhumerus 53.7344 -42.4471 43.2596
lradius 47.3883
lwrist 36.1513
lhand -26.0187 41.13
lfingers 7.12502
lthumb 0.527731 71.1091
rfemur -39.1201 29.9166 -8.7391
rtibia 26.5074
rfoot -7.58642 -9.08818
rtoes -3.51877
lfemur -7.96049 4.36332 -17.0217
ltibia 17.873
lfoot 7.63939 25.527
ltoes -16.4281
1074
root -1.90861 18.9745 -1.64558 3.30888 -44.7262 17.4578
lowerback 17.0463 -3.78196 1.11889
upperback 5.24877 -4.81549 1.2169
thorax -3.8958 -2.41978 1.61664
lowerneck -14.6546 -3.15716 -5.93661
upperneck 17.8774 -4.54799 7.40257
head 8.27075 -1.84664 2.93766
rclavicle 1.11319e-014 2.22639e-014
rhumerus 33.6587 38.2345 -42.0797
rradius 55.238
rwrist 2.88496
rhand -40.5536 -18.8012
rfingers 7.12502
rthumb -13.5014 -48.3435
lclavicle 1.11319e-014 2.22639e-014
lhumerus 52.8155 -42.3018 44.3623
lradius 48.1298
lwrist 43.984
lhand -24.4848 42.8835
lfingers 7.12502
lthumb 2.00915 72.8538
rfemur -39.0042 29.8529 -8.76772
rtibia 26.4809
rfoot -7.64173 -9.11417
rtoes -3.42934
lfemur -8.01578 4.41253 -17.0823
ltibia 17.9439
lfoot 7.47895 25.7443
ltoes -15.8136
1075
root -1.90863 18.9753 -1.64751 3.32246 -44.5475 17.45
lowerback 17.0891 -3.79789 1.20375
upperback 5.18178 -4.82067 1.16223
thorax -4.0012 -2.42023 1.51937
lowerneck -14.6262 -3.20399 -5.96298
upperneck 17.985 -4.64637 7.5435
head 8.31308 -1.88137 2.97943
rclavicle 1.74931e-014 4.92986e-014
rhumerus 33.4988 38.2673 -42.2179
rradius 54.4659
rwrist 9.03679
rhand -42.0846 -19.1284
rfingers 7.12502
rthumb -14.9767 -48.5669
lclavicle 1.74931e-014 4.92986e-014
lhumerus 52.1985 -42.342 45.0958
lradius 48.8691
lwrist 51.0996
lhand -23.391 44.6015
lfingers 7.12502
lthumb 3.06549 74.5593
rfemur -38.9095 29.7969 -8.75784
rtibia 26.4639
rfoot -7.69618 -9.20975
rtoes -3.33844
lfemur -8.09761 4.42032 -17.0845
ltibia 17.9844
lfoot 7.57545 25.8496
ltoes -15.6763
1076
root -1.90811 18.9781 -1.64769 3.35803 -44.3795 17.3453
lowerback 17.173 -3.8207 1.37108
upperback 5.12465 -4.82016 1.11421
thorax -4.12391 -2.41821 1.38451
lowerneck -14.5778 -3.22329 -5.87324
upperneck 18.054 -4.7102 7.57999
head 8.33105 -1.90268 2.97023
rclavicle 6.67916e-014 -1.59028e-014
rhumerus 33.2544 38.3258 -42.257
rradius 53.951
rwrist 13.2675
rhand -43.5371 -19.4685
rfingers 7.12502
rthumb -16.3756 -48.7972
lclavicle 6.67916e-014 -1.59028e-014
lhumerus 51.6774 -42.4408 45.6004
lradius 49.6163
lwrist 57.7029
lhand -23.3479 45.5863
lfingers 7.12502
lthumb 3.10717 75.5434
rfemur -38.766 29.7722 -8.64936
rtibia 26.4349
rfoot -7.79344 -9.3138
rtoes -3.31125
lfemur -8.14334 4.39862 -17.0173
ltibia 18.0259
lfoot 7.55564 25.7982
ltoes -14.7127
1077
root -1.90809 18.9808 -1.64625 3.28107 -44.2459 17.3642
lowerback 17.2505 -3.811 1.4696
upperback 5.08263 -4.79189 1.01856
thorax -4.2262 -2.40288 1.23098
lowerneck -14.4835 -3.2636 -5.74549
upperneck 18.0659 -4.80748 7.60524
head 8.32289 -1.93957 2.94658
rclavicle 3.33958e-014 1.43125e-014
rhumerus 32.9431 38.3916 -42.2918
rradius 53.5719
rwrist 15.5774
rhand -44.8426 -20.0222
rfingers 7.12502
rthumb -17.6321 -49.2427
lclavicle 3.33958e-014 1.43125e-014
lhumerus 51.3167 -42.5175 45.9192
lradius 50.1396
lwrist 63.2961
lhand -23.0307 45.7559
lfingers 7.12502
lthumb 3.41348 75.7083
rfemur -38.577 29.7102 -8.60194
rtibia 26.3809
rfoot -7.89224 -9.33177
rtoes -3.27414
lfemur -8.14193 4.45428 -17.0527
ltibia 18.0889
lfoot 7.5886 25.6159
ltoes -14.0762
